<svg id="wave" style="transform:rotate(0deg); transition: 0.3s" viewBox="0 0 1440 490" version="1.1"
  xmlns="http://www.w3.org/2000/svg">
  <defs>
    <linearGradient id="sw-gradient-0" x1="0" x2="0" y1="1" y2="0">
      <stop stop-color="rgba(0, 79.671, 161.972, 0.83)" offset="0%"></stop>
      <stop stop-color="rgba(205.231, 182.771, 37.729, 1)" offset="100%"></stop>
    </linearGradient>
  </defs>
  <path style="transform:translate(0, 0px); opacity:1" fill="url(#sw-gradient-0)" d="M0,147L13.3,171.5C26.7,196,53,245,80,285.8C106.7,327,133,359,160,334.8C186.7,310,213,229,240,163.3C266.7,98,293,49,320,40.8C346.7,33,373,65,400,89.8C426.7,114,453,131,480,114.3C506.7,98,533,49,560,81.7C586.7,114,613,229,640,236.8C666.7,245,693,147,720,106.2C746.7,65,773,82,800,138.8C826.7,196,853,294,880,310.3C906.7,327,933,261,960,220.5C986.7,180,1013,163,1040,196C1066.7,229,1093,310,1120,351.2C1146.7,392,1173,392,1200,392C1226.7,392,1253,392,1280,343C1306.7,294,1333,196,1360,187.8C1386.7,180,1413,261,1440,294C1466.7,327,1493,310,1520,294C1546.7,278,1573,261,1600,253.2C1626.7,245,1653,245,1680,245C1706.7,245,1733,245,1760,228.7C1786.7,212,1813,180,1840,138.8C1866.7,98,1893,49,1907,24.5L1920,0L1920,490L1906.7,490C1893.3,490,1867,490,1840,490C1813.3,490,1787,490,1760,490C1733.3,490,1707,490,1680,490C1653.3,490,1627,490,1600,490C1573.3,490,1547,490,1520,490C1493.3,490,1467,490,1440,490C1413.3,490,1387,490,1360,490C1333.3,490,1307,490,1280,490C1253.3,490,1227,490,1200,490C1173.3,490,1147,490,1120,490C1093.3,490,1067,490,1040,490C1013.3,490,987,490,960,490C933.3,490,907,490,880,490C853.3,490,827,490,800,490C773.3,490,747,490,720,490C693.3,490,667,490,640,490C613.3,490,587,490,560,490C533.3,490,507,490,480,490C453.3,490,427,490,400,490C373.3,490,347,490,320,490C293.3,490,267,490,240,490C213.3,490,187,490,160,490C133.3,490,107,490,80,490C53.3,490,27,490,13,490L0,490Z"></path>
</svg>