<svg id="wave" style="transform:rotate(0deg); transition: 0.3s" viewBox="0 0 1440 400" version="1.1"
  xmlns="http://www.w3.org/2000/svg">
  <defs>
    <linearGradient id="sw-gradient-0" x1="0" x2="0" y1="1" y2="0">
      <stop stop-color="rgba(157.418, 28.051, 148.836, 0.83)" offset="0%"></stop>
      <stop stop-color="rgba(109.606, 101.926, 52.328, 1)" offset="100%"></stop>
    </linearGradient>
  </defs>
  <path style="transform:translate(0, 0px); opacity:1" fill="url(#sw-gradient-0)" d="M0,320L24,320C48,320,96,320,144,300C192,280,240,240,288,186.7C336,133,384,67,432,60C480,53,528,107,576,126.7C624,147,672,133,720,153.3C768,173,816,227,864,206.7C912,187,960,93,1008,66.7C1056,40,1104,80,1152,140C1200,200,1248,280,1296,266.7C1344,253,1392,147,1440,133.3C1488,120,1536,200,1584,193.3C1632,187,1680,93,1728,93.3C1776,93,1824,187,1872,200C1920,213,1968,147,2016,140C2064,133,2112,187,2160,193.3C2208,200,2256,160,2304,126.7C2352,93,2400,67,2448,86.7C2496,107,2544,173,2592,213.3C2640,253,2688,267,2736,266.7C2784,267,2832,253,2880,213.3C2928,173,2976,107,3024,73.3C3072,40,3120,40,3168,93.3C3216,147,3264,253,3312,280C3360,307,3408,253,3432,226.7L3456,200L3456,400L3432,400C3408,400,3360,400,3312,400C3264,400,3216,400,3168,400C3120,400,3072,400,3024,400C2976,400,2928,400,2880,400C2832,400,2784,400,2736,400C2688,400,2640,400,2592,400C2544,400,2496,400,2448,400C2400,400,2352,400,2304,400C2256,400,2208,400,2160,400C2112,400,2064,400,2016,400C1968,400,1920,400,1872,400C1824,400,1776,400,1728,400C1680,400,1632,400,1584,400C1536,400,1488,400,1440,400C1392,400,1344,400,1296,400C1248,400,1200,400,1152,400C1104,400,1056,400,1008,400C960,400,912,400,864,400C816,400,768,400,720,400C672,400,624,400,576,400C528,400,480,400,432,400C384,400,336,400,288,400C240,400,192,400,144,400C96,400,48,400,24,400L0,400Z"></path>
</svg>