<svg xmlns="http://www.w3.org/2000/svg" viewBox="0 0 1440 320">
  <path fill="#a2d9ff" fill-opacity="1" d="M0,256L30,218.7C60,181,120,107,180,96C240,85,300,139,360,133.3C420,128,480,64,540,48C600,32,660,64,720,96C780,128,840,160,900,181.3C960,203,1020,213,1080,202.7C1140,192,1200,160,1260,149.3C1320,139,1380,149,1410,154.7L1440,160L1440,0L1410,0C1380,0,1320,0,1260,0C1200,0,1140,0,1080,0C1020,0,960,0,900,0C840,0,780,0,720,0C660,0,600,0,540,0C480,0,420,0,360,0C300,0,240,0,180,0C120,0,60,0,30,0L0,0Z"></path>
</svg>