<svg id="visual" viewBox="0 0 900 600" width="900" height="600" xmlns="http://www.w3.org/2000/svg" xmlns:xlink="http://www.w3.org/1999/xlink" version="1.1"><rect x="0" y="0" width="900" height="600" fill="#CCCCCC"></rect><path d="M0 395L21.5 398.2C43 401.3 86 407.7 128.8 426.3C171.7 445 214.3 476 257.2 486.2C300 496.3 343 485.7 385.8 465C428.7 444.3 471.3 413.7 514.2 415.2C557 416.7 600 450.3 642.8 451.8C685.7 453.3 728.3 422.7 771.2 410.2C814 397.7 857 403.3 878.5 406.2L900 409L900 601L878.5 601C857 601 814 601 771.2 601C728.3 601 685.7 601 642.8 601C600 601 557 601 514.2 601C471.3 601 428.7 601 385.8 601C343 601 300 601 257.2 601C214.3 601 171.7 601 128.8 601C86 601 43 601 21.5 601L0 601Z" fill="#0086FF" stroke-linecap="round" stroke-linejoin="miter"></path></svg>